<svg width="20" height="19" viewBox="0 0 20 19" fill="none" xmlns="http://www.w3.org/2000/svg">
<path d="M8.45418 1.69665V1.85881C8.3098 1.57376 8.07708 1.34103 7.79202 1.19666H7.95418C8.23032 1.19666 8.45418 1.42051 8.45418 1.69665ZM7.79202 8.31954C8.07708 8.17516 8.3098 7.94244 8.45418 7.65738V7.81954C8.45418 8.09568 8.23032 8.31954 7.95418 8.31954H7.79202ZM1.3313 7.65738C1.47567 7.94244 1.7084 8.17516 1.99346 8.31954H1.8313C1.55516 8.31954 1.3313 8.09568 1.3313 7.81954V7.65738ZM1.99346 1.19666C1.7084 1.34103 1.47567 1.57376 1.3313 1.85881V1.69666C1.3313 1.42051 1.55516 1.19666 1.8313 1.19666H1.99346Z" stroke="white"/>
<path d="M18.6364 1.69665V1.85881C18.492 1.57376 18.2593 1.34103 17.9742 1.19666H18.1364C18.4125 1.19666 18.6364 1.42051 18.6364 1.69665ZM17.9742 8.31954C18.2593 8.17516 18.492 7.94244 18.6364 7.65738V7.81954C18.6364 8.09568 18.4125 8.31954 18.1364 8.31954H17.9742ZM11.5135 7.65738C11.6579 7.94244 11.8906 8.17516 12.1756 8.31954H12.0135C11.7373 8.31954 11.5135 8.09568 11.5135 7.81954V7.65738ZM12.1756 1.19666C11.8906 1.34103 11.6579 1.57376 11.5135 1.85881V1.69666C11.5135 1.42051 11.7373 1.19666 12.0135 1.19666H12.1756Z" stroke="white"/>
<path d="M8.45418 11.5737V11.6978C8.3219 11.4366 8.11546 11.2193 7.86256 11.0737H7.95418C8.23032 11.0737 8.45418 11.2976 8.45418 11.5737ZM7.79202 18.1966C8.07708 18.0522 8.3098 17.8195 8.45418 17.5345V17.6966C8.45418 17.9728 8.23032 18.1966 7.95418 18.1966H7.79202ZM1.3313 17.5345C1.47567 17.8195 1.7084 18.0522 1.99346 18.1966H1.8313C1.55516 18.1966 1.3313 17.9728 1.3313 17.6966V17.5345ZM1.92292 11.0737C1.67002 11.2193 1.46358 11.4366 1.3313 11.6978V11.5737C1.3313 11.2976 1.55516 11.0737 1.8313 11.0737H1.92292Z" stroke="white"/>
<path d="M18.6364 11.5737V11.6978C18.5041 11.4366 18.2977 11.2193 18.0448 11.0737H18.1364C18.4125 11.0737 18.6364 11.2976 18.6364 11.5737ZM17.9742 18.1966C18.2593 18.0522 18.492 17.8195 18.6364 17.5345V17.6966C18.6364 17.9728 18.4125 18.1966 18.1364 18.1966H17.9742ZM11.5135 17.5345C11.6579 17.8195 11.8906 18.0522 12.1756 18.1966H12.0135C11.7373 18.1966 11.5135 17.9728 11.5135 17.6966V17.5345ZM12.1051 11.0737C11.8522 11.2193 11.6458 11.4366 11.5135 11.6978V11.5737C11.5135 11.2976 11.7373 11.0737 12.0135 11.0737H12.1051Z" stroke="white"/>
</svg>
