<svg width="24" height="24" viewBox="0 0 24 24" fill="none" xmlns="http://www.w3.org/2000/svg">
<path d="M21.8906 2.85938H7.73438C6.57094 2.85938 5.625 3.80578 5.625 4.96875C5.625 6.13219 6.57094 7.07812 7.73438 7.07812H21.8906C23.0536 7.07812 24 6.13219 24 4.96875C24 3.80578 23.0536 2.85938 21.8906 2.85938Z" fill="white"/>
<path d="M21.8906 9.89062H7.73438C6.57094 9.89062 5.625 10.837 5.625 12C5.625 13.1634 6.57094 14.1094 7.73438 14.1094H21.8906C23.0536 14.1094 24 13.1634 24 12C24 10.837 23.0536 9.89062 21.8906 9.89062Z" fill="white"/>
<path d="M21.8906 16.9219H7.73438C6.57094 16.9219 5.625 17.8683 5.625 19.0312C5.625 20.1947 6.57094 21.1406 7.73438 21.1406H21.8906C23.0536 21.1406 24 20.1947 24 19.0312C24 17.8683 23.0536 16.9219 21.8906 16.9219Z" fill="white"/>
<path d="M2.10938 2.85938C0.945938 2.85938 0 3.80578 0 4.96875C0 6.13219 0.945938 7.07812 2.10938 7.07812C3.27234 7.07812 4.21875 6.13219 4.21875 4.96875C4.21875 3.80578 3.27234 2.85938 2.10938 2.85938Z" fill="white"/>
<path d="M2.10938 9.89062C0.945938 9.89062 0 10.837 0 12C0 13.1634 0.945938 14.1094 2.10938 14.1094C3.27234 14.1094 4.21875 13.1634 4.21875 12C4.21875 10.837 3.27234 9.89062 2.10938 9.89062Z" fill="white"/>
<path d="M2.10938 16.9219C0.945938 16.9219 0 17.8683 0 19.0312C0 20.1947 0.945938 21.1406 2.10938 21.1406C3.27234 21.1406 4.21875 20.1947 4.21875 19.0312C4.21875 17.8683 3.27234 16.9219 2.10938 16.9219Z" fill="white"/>
</svg>
