<svg width="24" height="16" viewBox="0 0 24 16" fill="none" xmlns="http://www.w3.org/2000/svg">
<path d="M23.9704 13.5619C23.9475 13.5353 23.9138 13.5195 23.8783 13.5195H0.121757C0.086269 13.5195 0.0527525 13.5351 0.0295868 13.5619C0.00642097 13.5885 -0.0039297 13.6243 0.00124563 13.6595C0.00469585 13.6817 0.363026 15.8815 3.14415 15.8815H20.8559C23.6368 15.8815 23.9951 13.6817 23.9988 13.6595C24.0037 13.6243 23.9934 13.5885 23.9704 13.5619ZM13.7866 15.1111H10.2132V14.2894H13.7866V15.1111Z" fill="white"/>
<path d="M2.58939 12.6643H21.4104C21.6824 12.6643 21.9032 12.4435 21.9032 12.1715V0.611725C21.9032 0.33965 21.6824 0.118835 21.4104 0.118835H2.58939C2.31731 0.118835 2.0965 0.33965 2.0965 0.611725V12.1715C2.0965 12.4435 2.31731 12.6643 2.58939 12.6643ZM3.82161 1.84395H20.1781V10.9392H3.82161V1.84395Z" fill="white"/>
</svg>
