<svg width="24" height="24" viewBox="0 0 24 24" fill="none" xmlns="http://www.w3.org/2000/svg">
<path d="M11.9531 0H6.32812C5.55145 0 4.92188 0.629578 4.92188 1.40625C4.92188 2.18292 5.55145 2.8125 6.32812 2.8125H11.9531C12.7298 2.8125 13.3594 2.18292 13.3594 1.40625C13.3594 0.629578 12.7298 0 11.9531 0Z" fill="white"/>
<path d="M15.7031 1.40625H14.7656C14.7656 2.44495 14.1992 3.3533 13.3594 3.84037V4.21875C13.3594 5.76956 12.0977 7.03125 10.5469 7.03125H7.73438C6.18356 7.03125 4.92188 5.76956 4.92188 4.21875V3.84037C4.08206 3.3533 3.51562 2.44495 3.51562 1.40625H2.57812C1.15655 1.40625 0 2.5628 0 3.98438V21.4219C0 22.8435 1.15655 24 2.57812 24H15.7031C17.1247 24 18.2812 22.8435 18.2812 21.4219V3.98438C18.2812 2.5628 17.1247 1.40625 15.7031 1.40625ZM4.92188 18.75H3.51562C3.12731 18.75 2.8125 18.4352 2.8125 18.0469C2.8125 17.6586 3.12731 17.3438 3.51562 17.3438H4.92188C5.31019 17.3438 5.625 17.6586 5.625 18.0469C5.625 18.4352 5.31019 18.75 4.92188 18.75ZM4.92188 15.9375H3.51562C3.12731 15.9375 2.8125 15.6227 2.8125 15.2344C2.8125 14.8461 3.12731 14.5312 3.51562 14.5312H4.92188C5.31019 14.5312 5.625 14.8461 5.625 15.2344C5.625 15.6227 5.31019 15.9375 4.92188 15.9375ZM4.92188 13.125H3.51562C3.12731 13.125 2.8125 12.8102 2.8125 12.4219C2.8125 12.0336 3.12731 11.7188 3.51562 11.7188H4.92188C5.31019 11.7188 5.625 12.0336 5.625 12.4219C5.625 12.8102 5.31019 13.125 4.92188 13.125ZM4.92188 10.3125H3.51562C3.12731 10.3125 2.8125 9.99769 2.8125 9.60938C2.8125 9.22106 3.12731 8.90625 3.51562 8.90625H4.92188C5.31019 8.90625 5.625 9.22106 5.625 9.60938C5.625 9.99769 5.31019 10.3125 4.92188 10.3125ZM7.03125 18.0469C7.03125 17.6586 7.34606 17.3438 7.73438 17.3438H12.4219C12.8102 17.3438 13.125 17.6586 13.125 18.0469C13.125 18.4352 12.8102 18.75 12.4219 18.75H7.73438C7.34606 18.75 7.03125 18.4352 7.03125 18.0469ZM14.7656 21.5625H11.9531C11.5648 21.5625 11.25 21.2477 11.25 20.8594C11.25 20.4711 11.5648 20.1562 11.9531 20.1562H14.7656C15.1539 20.1562 15.4688 20.4711 15.4688 20.8594C15.4688 21.2477 15.1539 21.5625 14.7656 21.5625ZM14.7656 15.9375H7.73438C7.34606 15.9375 7.03125 15.6227 7.03125 15.2344C7.03125 14.8461 7.34606 14.5312 7.73438 14.5312H14.7656C15.1539 14.5312 15.4688 14.8461 15.4688 15.2344C15.4688 15.6227 15.1539 15.9375 14.7656 15.9375ZM7.03125 12.4219C7.03125 12.0336 7.34606 11.7188 7.73438 11.7188H13.3594C13.7477 11.7188 14.0625 12.0336 14.0625 12.4219C14.0625 12.8102 13.7477 13.125 13.3594 13.125H7.73438C7.34606 13.125 7.03125 12.8102 7.03125 12.4219ZM14.7656 10.3125H7.73438C7.34606 10.3125 7.03125 9.99769 7.03125 9.60938C7.03125 9.22106 7.34606 8.90625 7.73438 8.90625H14.7656C15.1539 8.90625 15.4688 9.22106 15.4688 9.60938C15.4688 9.99769 15.1539 10.3125 14.7656 10.3125Z" fill="white"/>
<path d="M7.73438 5.625H10.5469C11.3235 5.625 11.9531 4.99542 11.9531 4.21875H6.32812C6.32812 4.99542 6.9577 5.625 7.73438 5.625Z" fill="white"/>
<path d="M21.307 20.25L21.9026 23.4264C21.965 23.759 22.2554 24 22.5937 24C22.9321 24 23.2224 23.759 23.2848 23.4264L23.8804 20.25H21.307Z" fill="white"/>
<path d="M24 6.65625V3.375C24 2.59833 23.3704 1.96875 22.5938 1.96875C21.8171 1.96875 21.1875 2.59833 21.1875 3.375V6.65625H24Z" fill="white"/>
<path d="M21.1875 8.0625H24V18.8438H21.1875V8.0625Z" fill="white"/>
</svg>
