<svg width="24" height="22" viewBox="0 0 24 22" fill="none" xmlns="http://www.w3.org/2000/svg">
<path d="M23.3224 1.52404C22.8703 1.07206 22.3273 0.846191 21.6924 0.846191H2.30775C1.67315 0.846191 1.12983 1.07206 0.677847 1.52404C0.225966 1.97612 0 2.51924 0 3.15399V18.8464C0 19.4812 0.225966 20.0239 0.677847 20.4762C1.12983 20.9282 1.6731 21.1539 2.30775 21.1539H21.6924C22.3272 21.1539 22.8702 20.9282 23.3224 20.4762C23.7742 20.0239 24.0001 19.4809 24.0001 18.8464V3.15399C24.0001 2.51924 23.7742 1.97597 23.3224 1.52404ZM7.38483 18.8459C7.38483 18.9809 7.34143 19.0912 7.2548 19.1779C7.16831 19.2643 7.05783 19.3073 6.92305 19.3073H2.30775C2.17327 19.3073 2.06259 19.2642 1.976 19.1779C1.88946 19.0912 1.84627 18.9809 1.84627 18.8459V16.0765C1.84627 15.9417 1.88946 15.8314 1.976 15.7451C2.06259 15.6583 2.17327 15.6151 2.30775 15.6151H6.9232C7.05793 15.6151 7.16861 15.6583 7.25495 15.7451C7.34138 15.8314 7.38478 15.9417 7.38478 16.0765V18.8459H7.38483ZM7.38483 13.3077C7.38483 13.4422 7.34143 13.5529 7.2548 13.6393C7.16831 13.7259 7.05783 13.7691 6.92305 13.7691H2.30775C2.17327 13.7691 2.06259 13.7259 1.976 13.6393C1.88946 13.5529 1.84627 13.4422 1.84627 13.3077V10.5384C1.84627 10.4038 1.88946 10.2932 1.976 10.2066C2.06259 10.1203 2.17327 10.077 2.30775 10.077H6.9232C7.05793 10.077 7.16841 10.1202 7.25495 10.2066C7.34138 10.2932 7.38478 10.4038 7.38478 10.5384V13.3077H7.38483ZM7.38483 7.76924C7.38483 7.90392 7.34143 8.0144 7.2548 8.10099C7.16831 8.18732 7.05783 8.23072 6.92305 8.23072H2.30775C2.17327 8.23072 2.06259 8.18732 1.976 8.10099C1.88946 8.01435 1.84627 7.90392 1.84627 7.76924V5.00001C1.84627 4.86533 1.88946 4.7547 1.976 4.66826C2.06259 4.58172 2.17327 4.53853 2.30775 4.53853H6.9232C7.05793 4.53853 7.16841 4.58172 7.25495 4.66826C7.34138 4.7547 7.38478 4.86533 7.38478 5.00001V7.76924H7.38483ZM14.7695 18.8459C14.7695 18.9809 14.7263 19.0912 14.64 19.1779C14.5535 19.2643 14.443 19.3073 14.3081 19.3073H9.69233C9.5578 19.3073 9.44716 19.2642 9.36058 19.1779C9.27404 19.0912 9.23085 18.9809 9.23085 18.8459V16.0765C9.23085 15.9417 9.27404 15.8314 9.36058 15.7451C9.44716 15.6583 9.5578 15.6151 9.69233 15.6151H14.3079C14.4427 15.6151 14.5533 15.6583 14.6398 15.7451C14.7259 15.8314 14.7691 15.9417 14.7691 16.0765V18.8459H14.7695V18.8459ZM14.7695 13.3077C14.7695 13.4422 14.7263 13.5529 14.64 13.6393C14.5535 13.7259 14.443 13.7691 14.3081 13.7691H9.69233C9.5578 13.7691 9.44716 13.7259 9.36058 13.6393C9.27404 13.5529 9.23085 13.4422 9.23085 13.3077V10.5384C9.23085 10.4038 9.27404 10.2932 9.36058 10.2066C9.44716 10.1203 9.5578 10.077 9.69233 10.077H14.3079C14.4427 10.077 14.5533 10.1202 14.6398 10.2066C14.7259 10.2932 14.7691 10.4038 14.7691 10.5384V13.3077H14.7695ZM14.7695 7.76924C14.7695 7.90392 14.7263 8.0144 14.64 8.10099C14.5535 8.18732 14.443 8.23072 14.3081 8.23072H9.69233C9.5578 8.23072 9.44716 8.18732 9.36058 8.10099C9.27404 8.01435 9.23085 7.90392 9.23085 7.76924V5.00001C9.23085 4.86533 9.27404 4.7547 9.36058 4.66826C9.44716 4.58172 9.5578 4.53853 9.69233 4.53853H14.3079C14.4427 4.53853 14.5533 4.58172 14.6398 4.66826C14.7259 4.7547 14.7691 4.86533 14.7691 5.00001V7.76924H14.7695ZM22.1538 18.8459C22.1538 18.9809 22.1106 19.0912 22.0244 19.1779C21.9376 19.2643 21.827 19.3073 21.6925 19.3073H17.0775C16.9424 19.3073 16.8318 19.2642 16.7456 19.1779C16.6591 19.0912 16.6162 18.9809 16.6162 18.8459V16.0765C16.6162 15.9417 16.6591 15.8314 16.7456 15.7451C16.8318 15.6583 16.9424 15.6151 17.0775 15.6151H21.6925C21.827 15.6151 21.9377 15.6583 22.0244 15.7451C22.1106 15.8314 22.1538 15.9417 22.1538 16.0765V18.8459ZM22.1538 13.3077C22.1538 13.4422 22.1106 13.5529 22.0244 13.6393C21.9376 13.7259 21.827 13.7691 21.6925 13.7691H17.0775C16.9424 13.7691 16.8318 13.7259 16.7456 13.6393C16.6591 13.5529 16.6162 13.4422 16.6162 13.3077V10.5384C16.6162 10.4038 16.6591 10.2932 16.7456 10.2066C16.8318 10.1203 16.9424 10.077 17.0775 10.077H21.6925C21.827 10.077 21.9377 10.1202 22.0244 10.2066C22.1106 10.2932 22.1538 10.4038 22.1538 10.5384V13.3077ZM22.1538 7.76924C22.1538 7.90392 22.1106 8.0144 22.0244 8.10099C21.9376 8.18732 21.827 8.23072 21.6925 8.23072H17.0775C16.9424 8.23072 16.8318 8.18732 16.7456 8.10099C16.6591 8.01435 16.6162 7.90392 16.6162 7.76924V5.00001C16.6162 4.86533 16.6591 4.7547 16.7456 4.66826C16.8318 4.58172 16.9424 4.53853 17.0775 4.53853H21.6925C21.827 4.53853 21.9377 4.58172 22.0244 4.66826C22.1106 4.7547 22.1538 4.86533 22.1538 5.00001V7.76924Z" fill="white"/>
</svg>
