<svg width="26" height="18" viewBox="0 0 26 18" fill="none" xmlns="http://www.w3.org/2000/svg">
<path d="M3.85714 7.71429C5.27545 7.71429 6.42857 6.56116 6.42857 5.14286C6.42857 3.72455 5.27545 2.57143 3.85714 2.57143C2.43884 2.57143 1.28571 3.72455 1.28571 5.14286C1.28571 6.56116 2.43884 7.71429 3.85714 7.71429ZM21.8571 7.71429C23.2754 7.71429 24.4286 6.56116 24.4286 5.14286C24.4286 3.72455 23.2754 2.57143 21.8571 2.57143C20.4388 2.57143 19.2857 3.72455 19.2857 5.14286C19.2857 6.56116 20.4388 7.71429 21.8571 7.71429ZM23.1429 9H20.5714C19.8643 9 19.2254 9.28527 18.7594 9.74732C20.3786 10.6353 21.5277 12.2384 21.7768 14.1429H24.4286C25.1397 14.1429 25.7143 13.5683 25.7143 12.8571V11.5714C25.7143 10.1531 24.5612 9 23.1429 9ZM12.8571 9C15.3442 9 17.3571 6.98705 17.3571 4.5C17.3571 2.01295 15.3442 0 12.8571 0C10.3701 0 8.35714 2.01295 8.35714 4.5C8.35714 6.98705 10.3701 9 12.8571 9ZM15.9429 10.2857H15.6094C14.7737 10.6875 13.8455 10.9286 12.8571 10.9286C11.8687 10.9286 10.9446 10.6875 10.1049 10.2857H9.77143C7.21607 10.2857 5.14286 12.3589 5.14286 14.9143V16.0714C5.14286 17.1362 6.0067 18 7.07143 18H18.6429C19.7076 18 20.5714 17.1362 20.5714 16.0714V14.9143C20.5714 12.3589 18.4982 10.2857 15.9429 10.2857ZM6.95491 9.74732C6.48884 9.28527 5.85 9 5.14286 9H2.57143C1.15313 9 0 10.1531 0 11.5714V12.8571C0 13.5683 0.574554 14.1429 1.28571 14.1429H3.93348C4.18661 12.2384 5.33571 10.6353 6.95491 9.74732Z" fill="white"/>
</svg>
