<svg width="22" height="16" viewBox="0 0 22 16" fill="none" xmlns="http://www.w3.org/2000/svg">
<path d="M20.9736 7.9217C21.058 8.13273 20.9314 8.30155 20.7203 8.30155H1.3058C1.05256 8.30155 0.968159 8.13273 1.01036 7.9217L3.41607 1.37985C3.50048 1.16882 3.75372 1 3.96475 1H17.7659C17.977 1 18.2724 1.16882 18.3568 1.37985L20.9736 7.9217Z" stroke="white" stroke-miterlimit="10" stroke-linecap="round" stroke-linejoin="round"/>
<path d="M13.4189 4.41884C13.5877 5.60059 12.4904 6.61353 10.971 6.61353C9.45157 6.61353 8.35423 5.55839 8.43864 4.41884C8.56526 3.3637 9.66259 2.604 10.8866 2.604C12.1527 2.604 13.2923 3.40591 13.4189 4.41884Z" stroke="white" stroke-miterlimit="10" stroke-linecap="round" stroke-linejoin="round"/>
<path d="M6.20681 4.58174C6.26826 5.0119 5.86883 5.38061 5.31576 5.38061C4.7627 5.38061 4.36327 4.99654 4.39399 4.58174C4.44008 4.19767 4.83951 3.92114 5.28504 3.92114C5.74592 3.92114 6.16072 4.21304 6.20681 4.58174Z" stroke="white" stroke-miterlimit="10" stroke-linecap="round" stroke-linejoin="round"/>
<path d="M17.4715 4.58174C17.5329 5.0119 17.1335 5.38061 16.5804 5.38061C16.0273 5.38061 15.6279 4.99654 15.6586 4.58174C15.7047 4.19767 16.1042 3.92114 16.5497 3.92114C17.0106 3.92114 17.4254 4.21304 17.4715 4.58174Z" stroke="white" stroke-miterlimit="10" stroke-linecap="round" stroke-linejoin="round"/>
<path d="M1.5589 10.5385H20.4248" stroke="white" stroke-miterlimit="10" stroke-linecap="round" stroke-linejoin="round"/>
<path d="M1.5589 12.7753H20.4248" stroke="white" stroke-miterlimit="10" stroke-linecap="round" stroke-linejoin="round"/>
<path d="M1.5589 15.0544H20.4248" stroke="white" stroke-miterlimit="10" stroke-linecap="round" stroke-linejoin="round"/>
</svg>
