<svg width="14" height="20" viewBox="0 0 14 20" fill="none" xmlns="http://www.w3.org/2000/svg">
<path d="M13.4125 16.375C13.4125 17.8 12.25 19 10.7875 19H3.625C2.2 19 1 17.8 1 16.375V3.625C1 2.2 2.2 1 3.625 1H10.7875C12.25 1 13.4125 2.2 13.4125 3.625V16.375Z" stroke="white" stroke-miterlimit="10"/>
<path d="M11.65 2.94998H2.76248V6.21248H11.65V2.94998Z" stroke="white" stroke-miterlimit="10"/>
<path d="M4.56248 8.38748H2.76248V10.1125H4.56248V8.38748Z" stroke="white" stroke-miterlimit="10"/>
<path d="M8.12498 8.38748H6.32498V10.1125H8.12498V8.38748Z" stroke="white" stroke-miterlimit="10"/>
<path d="M11.65 8.38748H9.85004V10.1125H11.65V8.38748Z" stroke="white" stroke-miterlimit="10"/>
<path d="M4.56248 11.5H2.76248V13.225H4.56248V11.5Z" stroke="white" stroke-miterlimit="10"/>
<path d="M8.12498 11.5H6.32498V13.225H8.12498V11.5Z" stroke="white" stroke-miterlimit="10"/>
<path d="M11.65 11.5H9.85004V13.225H11.65V11.5Z" stroke="white" stroke-miterlimit="10"/>
<path d="M4.56248 14.575H2.76248V16.3H4.56248V14.575Z" stroke="white" stroke-miterlimit="10"/>
<path d="M8.12498 14.575H6.32498V16.3H8.12498V14.575Z" stroke="white" stroke-miterlimit="10"/>
<path d="M11.65 14.575H9.85004V16.3H11.65V14.575Z" stroke="white" stroke-miterlimit="10"/>
</svg>
