<svg width="24" height="24" viewBox="0 0 24 24" fill="none" xmlns="http://www.w3.org/2000/svg">
<g clip-path="url(#clip0)">
<path d="M23.3826 15.4291L18.4115 10.4573C17.5903 9.63475 16.2501 9.63475 15.4288 10.4573L10.4564 15.4298C9.63518 16.2516 9.63518 17.5892 10.4564 18.4117L15.4288 23.3835C16.2501 24.206 17.5913 24.205 18.4115 23.3835L23.3826 18.4117C24.2051 17.5892 24.2051 16.2516 23.3826 15.4291ZM16.9216 20.4365C16.5333 20.4365 16.2185 20.1217 16.2185 19.7334C16.2185 19.3451 16.5333 19.0303 16.9216 19.0303C17.3099 19.0303 17.6247 19.3451 17.6247 19.7334C17.6247 20.1217 17.3098 20.4365 16.9216 20.4365ZM16.9216 17.6242C16.5333 17.6242 16.2185 17.3094 16.2185 16.9211C16.2185 16.5327 16.5333 16.218 16.9216 16.218C17.3099 16.218 17.6247 16.5327 17.6247 16.9211C17.6247 17.3094 17.3098 17.6242 16.9216 17.6242ZM16.9216 14.8118C16.5333 14.8118 16.2185 14.497 16.2185 14.1087C16.2185 13.7203 16.5333 13.4056 16.9216 13.4056C17.3099 13.4056 17.6247 13.7203 17.6247 14.1087C17.6247 14.497 17.3098 14.8118 16.9216 14.8118Z" fill="white"/>
<path d="M2.10976 11.2963H9.18756C10.3507 11.2963 11.2968 10.3502 11.2968 9.18707V2.10928C11.2968 0.946174 10.3507 0 9.18756 0H2.10976C0.946663 0 0.000488281 0.946174 0.000488281 2.10928V9.18707C0.000488281 10.3502 0.946616 11.2963 2.10976 11.2963ZM7.78137 2.85924C8.16967 2.85924 8.48447 3.17394 8.48447 3.56233C8.48447 3.95063 8.16967 4.26543 7.78137 4.26543C7.39308 4.26543 7.07828 3.95063 7.07828 3.56233C7.07828 3.17394 7.39308 2.85924 7.78137 2.85924ZM5.6721 4.96852C6.06039 4.96852 6.37519 5.28322 6.37519 5.67161C6.37519 6.0599 6.06039 6.3747 5.6721 6.3747C5.2838 6.3747 4.96901 6.0599 4.96901 5.67161C4.96901 5.28322 5.2838 4.96852 5.6721 4.96852ZM3.56282 7.07779C3.95112 7.07779 4.26591 7.3925 4.26591 7.78089C4.26591 8.16918 3.95112 8.48398 3.56282 8.48398C3.17453 8.48398 2.85973 8.16918 2.85973 7.78089C2.85973 7.3925 3.17453 7.07779 3.56282 7.07779Z" fill="white"/>
<path d="M14.8123 4.26544C14.8123 4.65406 15.1268 4.96853 15.5154 4.96853C17.4544 4.96853 19.0309 6.54566 19.0309 8.48399C19.0309 8.87261 19.3453 9.18708 19.734 9.18708C20.1226 9.18708 20.4371 8.87261 20.4371 8.48399C20.4371 5.77048 18.2289 3.56235 15.5154 3.56235C15.1268 3.56235 14.8123 3.87682 14.8123 4.26544Z" fill="white"/>
</g>
<defs>
<clipPath id="clip0">
<rect width="24" height="24" fill="white"/>
</clipPath>
</defs>
</svg>
