<svg width="24" height="24" viewBox="0 0 24 24" fill="none" xmlns="http://www.w3.org/2000/svg">
<g clip-path="url(#clip0)">
<path d="M21.102 5.8808L18.119 2.89783L12.5645 8.49884L15.5481 11.4822L21.102 5.8808Z" fill="white"/>
<path d="M9.89186 13.2336C9.65035 13.8135 10.2326 14.395 10.8122 14.1528L14.3829 12.3056L11.7374 9.6601L9.89186 13.2336Z" fill="white"/>
<path d="M23.794 3.18878C24.0687 2.91412 24.0687 2.46899 23.794 2.19434L21.8055 0.205994C21.5308 -0.0686646 21.0857 -0.0686646 20.811 0.205994L19.1135 1.90356L22.0963 4.88654L23.794 3.18878Z" fill="white"/>
<path d="M2.10934 19.7344H2.81247V23.2969C2.81247 23.581 2.98349 23.8379 3.24643 23.9463C3.50552 24.0545 3.80966 23.9969 4.01273 23.794L8.07236 19.7344H16.2656C17.4287 19.7344 18.375 18.7881 18.375 17.625V10.6437L16.157 12.8617C15.9635 13.0554 15.7375 13.2078 15.4841 13.3141L11.4583 15.4015C11.0923 15.5596 10.8177 15.6152 10.5375 15.6152C10.3282 15.6152 10.1264 15.5749 9.93143 15.5156H4.92185C4.53311 15.5156 4.21872 15.201 4.21872 14.8125C4.21872 14.4238 4.53311 14.1094 4.92185 14.1094H8.48233C8.34354 13.649 8.40305 13.1504 8.59439 12.6929L10.7642 8.47888C10.8259 8.32306 10.9784 8.09637 11.1714 7.90356L13.4031 5.67188H2.10934C0.946259 5.67188 -3.05176e-05 6.61816 -3.05176e-05 7.78125V17.625C-3.05176e-05 18.7881 0.946259 19.7344 2.10934 19.7344Z" fill="white"/>
</g>
<defs>
<clipPath id="clip0">
<rect width="24" height="24" fill="white"/>
</clipPath>
</defs>
</svg>
