<svg width="20" height="20" viewBox="0 0 20 20" fill="none" xmlns="http://www.w3.org/2000/svg">
<g clip-path="url(#clip0)">
<path d="M19.4994 11.7626L19.4994 11.7627C19.2287 13.6776 18.3061 15.3821 16.963 16.6474C16.9538 16.6561 16.9386 16.664 16.9138 16.6631C16.8877 16.6622 16.8621 16.6513 16.8436 16.6328L11.8872 11.6765H19.404C19.4315 11.6765 19.4596 11.6887 19.4798 11.7109C19.4988 11.7318 19.5012 11.7497 19.4994 11.7626ZM18.3232 8.82851L18.3232 8.82856C18.3242 8.84198 18.3203 8.85998 18.3011 8.8796C18.281 8.90028 18.2536 8.91175 18.2268 8.91175H10.5V1.1853C10.5 1.15845 10.5115 1.13094 10.5323 1.11064C10.552 1.09141 10.57 1.08761 10.5832 1.08852L10.5832 1.08852C14.7261 1.37429 18.0375 4.68563 18.3232 8.82851ZM7.73528 11.1765V11.3835L7.88172 11.53L13.6119 17.2605L13.6119 17.2605C13.632 17.2806 13.6425 17.309 13.6408 17.3376C13.6392 17.3642 13.6289 17.377 13.6186 17.3843L13.6184 17.3844C12.2904 18.3264 10.6764 18.8892 8.92867 18.911L8.92864 18.911C4.48672 18.9668 0.655871 15.3175 0.504847 10.879C0.357823 6.55251 3.51596 2.94131 7.64936 2.35721L7.6496 2.35718C7.66212 2.3554 7.67987 2.35766 7.70079 2.37673C7.72302 2.39699 7.73528 2.42509 7.73528 2.45257V11.1765Z" stroke="white"/>
</g>
<defs>
<clipPath id="clip0">
<rect width="20" height="20" fill="white"/>
</clipPath>
</defs>
</svg>
