<svg width="24" height="24" viewBox="0 0 24 24" fill="none" xmlns="http://www.w3.org/2000/svg">
<path d="M10.5938 4.21875V0.411987L6.78699 4.21875H10.5938Z" fill="white"/>
<path d="M12 5.625H6.375V8.50854C8.75391 8.85333 10.5938 10.8865 10.5938 13.3594C10.5938 15.0892 9.69177 16.6068 8.33826 17.4847C9.86151 18.1985 11.0418 19.4965 11.6113 21.0938H23.25V0H12V5.625ZM20.4375 18.2812H12V16.875H20.4375V18.2812ZM20.4375 15.4688H12V14.0625H20.4375V15.4688ZM16.9219 8.4375C15.7588 8.4375 14.8125 7.49121 14.8125 6.32812C14.8125 5.4126 15.4021 4.63953 16.2188 4.34821V2.8125H17.625V4.34821C18.4417 4.63953 19.0312 5.4126 19.0312 6.32812H17.625C17.625 5.94012 17.3099 5.625 16.9219 5.625C16.5339 5.625 16.2188 5.94012 16.2188 6.32812C16.2188 6.71613 16.5339 7.03125 16.9219 7.03125C18.085 7.03125 19.0312 7.97754 19.0312 9.14062C19.0312 10.0562 18.4417 10.8292 17.625 11.1205V12.6562H16.2188V11.1205C15.4021 10.8292 14.8125 10.0562 14.8125 9.14062H16.2188C16.2188 9.52863 16.5339 9.84375 16.9219 9.84375C17.3099 9.84375 17.625 9.52863 17.625 9.14062C17.625 8.75262 17.3099 8.4375 16.9219 8.4375Z" fill="white"/>
<path d="M9.1875 13.3594C9.1875 15.301 7.61353 16.875 5.67188 16.875C3.73022 16.875 2.15625 15.301 2.15625 13.3594C2.15625 11.4177 3.73022 9.84375 5.67188 9.84375C7.61353 9.84375 9.1875 11.4177 9.1875 13.3594Z" fill="white"/>
<path d="M5.67188 18.2812C2.95367 18.2812 0.75 20.5318 0.75 23.25V24H10.5938V23.25C10.5938 20.5318 8.39008 18.2812 5.67188 18.2812Z" fill="white"/>
</svg>
