<svg width="22" height="22" viewBox="0 0 22 22" fill="none" xmlns="http://www.w3.org/2000/svg">
<path d="M21 2.90678C21 3.9661 17.9491 4.81356 14.178 4.81356C10.4068 4.81356 7.35593 3.9661 7.35593 2.90678C7.35593 1.84746 10.4068 1 14.178 1C17.9491 1 21 1.84746 21 2.90678Z" stroke="white" stroke-miterlimit="10" stroke-linecap="round"/>
<path d="M21.0001 6.29661C21.0001 7.35593 17.9492 8.20339 14.178 8.20339C13.4577 8.20339 12.7797 8.16102 12.1017 8.11864C12.017 8.11864 7.9492 7.61017 7.90683 7.5678" stroke="white" stroke-miterlimit="10" stroke-linecap="round"/>
<path d="M21 9.98327C21 11.0002 18.1187 11.8477 14.517 11.8901" stroke="white" stroke-miterlimit="10" stroke-linecap="round"/>
<path d="M21 13.6694C21 14.6863 18.161 15.4914 14.6017 15.5762" stroke="white" stroke-miterlimit="10" stroke-linecap="round"/>
<path d="M7.35593 3.49989V7.82192" stroke="white" stroke-miterlimit="10" stroke-linecap="round"/>
<path d="M20.9999 3.49989V13.627" stroke="white" stroke-miterlimit="10" stroke-linecap="round"/>
<path d="M14.4322 14.6019C14.4322 18.3307 11.4237 21.3392 7.69491 21.3392C4.00847 21.3392 1 18.3307 1 14.6019C1 10.8731 4.00847 7.86463 7.73729 7.86463C11.4237 7.907 14.4322 10.9155 14.4322 14.6019Z" stroke="white" stroke-miterlimit="10" stroke-linecap="round"/>
<path d="M9.02351 15.2975C9.12003 15.4161 9.19039 15.5503 9.23091 15.7158C9.18461 15.5646 9.11461 15.4254 9.02351 15.2975Z" stroke="white"/>
</svg>
