<svg width="25" height="20" viewBox="0 0 25 20" fill="none" xmlns="http://www.w3.org/2000/svg">
<path d="M18.7165 9.83465C18.7165 14.7008 14.748 18.6693 9.88189 18.6693C4.9685 18.7165 1 14.748 1 9.83465C1 4.9685 4.9685 1 9.83465 1C14.748 1 18.7165 4.9685 18.7165 9.83465Z" stroke="white" stroke-miterlimit="10"/>
<path d="M12.2913 5.34646C12.2913 6.66929 11.2047 7.80315 9.83465 7.80315C8.51182 7.80315 7.37796 6.71653 7.37796 5.34646C7.37796 4.02362 8.46457 2.88976 9.83465 2.88976C11.2047 2.88976 12.2913 3.97638 12.2913 5.34646Z" stroke="white" stroke-miterlimit="10"/>
<path d="M12.2914 14.3702C12.2914 15.6931 11.2048 16.8269 9.83468 16.8269C8.51185 16.8269 7.37799 15.7403 7.37799 14.3702C7.37799 13.0474 8.46461 11.9135 9.83468 11.9135C11.2048 11.9135 12.2914 13.0002 12.2914 14.3702Z" stroke="white" stroke-miterlimit="10"/>
<path d="M14.3702 12.2914C13.0474 12.2914 11.9135 11.2047 11.9135 9.83467C11.9135 8.51183 13.0002 7.37798 14.3702 7.37798C15.6931 7.37798 16.8269 8.46459 16.8269 9.83467C16.7797 11.2047 15.6931 12.2914 14.3702 12.2914Z" stroke="white" stroke-miterlimit="10"/>
<path d="M5.34646 12.2913C4.02363 12.2913 2.88977 11.2047 2.88977 9.83465C2.88977 8.51181 3.97638 7.37795 5.34646 7.37795C6.6693 7.37795 7.80316 8.46457 7.80316 9.83465C7.75591 11.2047 6.6693 12.2913 5.34646 12.2913Z" stroke="white" stroke-miterlimit="10"/>
<path d="M13.8032 1.94485C15.8819 1.80312 19.4252 0.527529 20.1339 3.50391C20.4174 4.73225 20.1811 6.66926 21.2678 7.5669C22.2599 8.41729 23.5827 8.60627 23.6772 10.1653C23.7245 11.3937 23.2048 12.9527 22.4961 13.9921C22.0237 14.7008 21.504 15.2204 21.2678 16.0708C20.9843 17.0157 20.9371 18.0078 20.9371 19" stroke="white" stroke-miterlimit="10"/>
</svg>
