<svg width="20" height="20" viewBox="0 0 20 20" fill="none" xmlns="http://www.w3.org/2000/svg">
<g clip-path="url(#clip0)">
<path opacity="0.4" d="M6.29377 14.1652C5.95431 13.8257 6.13127 13.9214 5.31252 13.7023C4.94103 13.6027 4.61447 13.4113 4.31916 13.182L2.54689 17.5273C2.37541 17.948 2.69572 18.405 3.14963 18.3878L5.20783 18.3093L6.62345 19.8046C6.93595 20.1343 7.48439 20.0316 7.65588 19.6109L9.68908 14.6257C9.26564 14.8617 8.79572 14.9999 8.30978 14.9999C7.54806 14.9999 6.83244 14.7035 6.29377 14.1652ZM17.4531 17.5273L15.6809 13.182C15.3856 13.4117 15.059 13.6027 14.6875 13.7023C13.8645 13.9226 14.0449 13.8265 13.7063 14.1652C13.1676 14.7035 12.4516 14.9999 11.6899 14.9999C11.2039 14.9999 10.734 14.8613 10.3106 14.6257L12.3438 19.6109C12.5153 20.0316 13.0641 20.1343 13.3762 19.8046L14.7922 18.3093L16.8504 18.3878C17.3043 18.405 17.6246 17.9476 17.4531 17.5273ZM12.7735 13.2812C13.3703 12.6738 13.4387 12.7261 14.2887 12.4945C14.8313 12.3464 15.2555 11.9148 15.4008 11.3624C15.693 10.2531 15.6172 10.3871 16.4145 9.57534C16.8117 9.17104 16.9668 8.58159 16.8215 8.02925C16.5297 6.92065 16.5293 7.07534 16.8215 5.96557C16.9668 5.41323 16.8117 4.82378 16.4145 4.41948C15.6172 3.60776 15.693 3.74135 15.4008 2.63237C15.2555 2.08003 14.8313 1.64839 14.2887 1.50034C13.1996 1.20307 13.3309 1.28081 12.5328 0.468699C12.1356 0.0644019 11.5563 -0.0938012 11.0137 0.0542456C9.92502 0.351121 10.077 0.351511 8.98634 0.0542456C8.44377 -0.0938012 7.86447 0.0640113 7.4672 0.468699C6.66994 1.28042 6.80119 1.20307 5.71174 1.50034C5.16916 1.64839 4.74494 2.08003 4.59963 2.63237C4.30783 3.74135 4.38322 3.60776 3.58595 4.41948C3.18869 4.82378 3.03322 5.41323 3.17892 5.96557C3.47072 7.07339 3.47111 6.9187 3.17892 8.02885C3.03361 8.5812 3.18869 9.17065 3.58595 9.57534C4.38322 10.3871 4.30744 10.2531 4.59963 11.3624C4.74494 11.9148 5.16916 12.3464 5.71174 12.4945C6.58595 12.7328 6.65119 12.6953 7.22658 13.2812C7.74338 13.8074 8.54845 13.9015 9.16955 13.5085C9.41791 13.3509 9.70602 13.2671 10.0002 13.2671C10.2944 13.2671 10.5825 13.3509 10.8309 13.5085C11.4516 13.9015 12.2567 13.8074 12.7735 13.2812ZM6.31486 6.87339C6.31486 4.8019 7.96486 3.12261 10 3.12261C12.0352 3.12261 13.6852 4.8019 13.6852 6.87339C13.6852 8.94487 12.0352 10.6242 10 10.6242C7.96486 10.6242 6.31486 8.94487 6.31486 6.87339Z" fill="white"/>
</g>
<defs>
<clipPath id="clip0">
<rect width="20" height="20" fill="white"/>
</clipPath>
</defs>
</svg>
