<svg width="24" height="24" viewBox="0 0 24 24" fill="none" xmlns="http://www.w3.org/2000/svg">
<g clip-path="url(#clip0)">
<path d="M21.813 0.982788C21.3857 0.982788 21.0388 1.32923 21.0388 1.75697C21.0388 2.18422 21.3857 2.53114 21.813 2.53114C22.1652 2.53114 22.4517 2.81759 22.4517 3.16936V20.8293C22.4517 21.1811 22.1652 21.4675 21.813 21.4675C21.3857 21.4675 21.0388 21.8144 21.0388 22.2417C21.0388 22.6694 21.3857 23.0158 21.813 23.0158C23.0187 23.0158 24 22.0351 24 20.8293V3.16936C24 1.96357 23.0187 0.982788 21.813 0.982788ZM18.2251 0.982788C17.7979 0.982788 17.451 1.32923 17.451 1.75697C17.451 2.18422 17.7979 2.53114 18.2251 2.53114C18.5774 2.53114 18.8638 2.81759 18.8638 3.16936V20.8293C18.8638 21.1811 18.5774 21.4675 18.2251 21.4675C17.7979 21.4675 17.451 21.8144 17.451 22.2417C17.451 22.6694 17.7979 23.0158 18.2251 23.0158C19.4314 23.0158 20.4122 22.0351 20.4122 20.8293V3.16936C20.4122 1.96357 19.4314 0.982788 18.2251 0.982788ZM16.8244 3.16936V20.8293C16.8244 22.0351 15.8436 23.0158 14.6373 23.0158H7.39196C6.96374 23.0158 6.6173 22.6684 6.61778 22.2403C6.61972 21.5493 6.61682 20.1727 6.61682 17.3697C6.61682 16.8341 6.18231 16.4001 5.64716 16.4001C2.84415 16.4001 1.46756 16.3971 0.776126 16.399C0.347909 16.3996 0.000496799 16.0531 0.000496799 15.6249V3.16936C0.000496799 1.96164 0.979348 0.982788 2.18707 0.982788H14.6373C15.8436 0.982788 16.8244 1.96357 16.8244 3.16936ZM5.87554 17.9155V22.2417C5.87554 22.9179 5.0583 23.2824 4.55363 22.7894C-0.119501 18.1158 0.0767049 18.386 0.0150126 18.0645C-0.0795338 17.5916 0.284281 17.1413 0.774675 17.1413H5.10136C5.52861 17.1413 5.87554 17.4878 5.87554 17.9155Z" fill="white"/>
</g>
<defs>
<clipPath id="clip0">
<rect width="24" height="24" fill="white"/>
</clipPath>
</defs>
</svg>
