<svg width="24" height="24" viewBox="0 0 24 24" fill="none" xmlns="http://www.w3.org/2000/svg">
<g clip-path="url(#clip0)">
<path d="M19.25 0H4.74997C3.23297 0 1.99997 1.233 1.99997 2.75V21.25C1.99997 22.767 3.23297 24 4.74997 24H19.25C20.767 24 22 22.767 22 21.25V2.75C22 1.233 20.767 0 19.25 0ZM10.75 13V8.076C13.15 8.441 15 10.5 15 13C15 15.757 12.757 18 9.99997 18C8.89197 18 7.87697 17.626 7.04697 17.013L10.53 13.53C10.671 13.39 10.75 13.199 10.75 13ZM9.24997 8.076V12.69L5.98697 15.953C5.37397 15.123 4.99997 14.108 4.99997 13C4.99997 10.5 6.84997 8.441 9.24997 8.076ZM18.25 21.25H5.74997C5.33597 21.25 4.99997 20.914 4.99997 20.5C4.99997 20.086 5.33597 19.75 5.74997 19.75H18.25C18.664 19.75 19 20.086 19 20.5C19 20.914 18.664 21.25 18.25 21.25ZM18.25 18H16.75C16.336 18 16 17.664 16 17.25C16 16.836 16.336 16.5 16.75 16.5H18.25C18.664 16.5 19 16.836 19 17.25C19 17.664 18.664 18 18.25 18ZM18.25 15.25H16.75C16.336 15.25 16 14.914 16 14.5C16 14.086 16.336 13.75 16.75 13.75H18.25C18.664 13.75 19 14.086 19 14.5C19 14.914 18.664 15.25 18.25 15.25ZM18.25 12.25H16.75C16.336 12.25 16 11.914 16 11.5C16 11.086 16.336 10.75 16.75 10.75H18.25C18.664 10.75 19 11.086 19 11.5C19 11.914 18.664 12.25 18.25 12.25ZM18.25 9.5H16.75C16.336 9.5 16 9.164 16 8.75C16 8.336 16.336 8 16.75 8H18.25C18.664 8 19 8.336 19 8.75C19 9.164 18.664 9.5 18.25 9.5Z" fill="white"/>
</g>
<defs>
<clipPath id="clip0">
<rect width="24" height="24" fill="white"/>
</clipPath>
</defs>
</svg>
