<svg width="20" height="20" viewBox="0 0 20 20" fill="none" xmlns="http://www.w3.org/2000/svg">
<path d="M19.039 12.3319L17.375 11.371C17.543 10.4648 17.543 9.53507 17.375 8.62882L19.039 7.66788C19.2305 7.55851 19.3164 7.33195 19.2539 7.12101C18.8203 5.73038 18.082 4.47257 17.1172 3.4257C16.9687 3.26554 16.7265 3.22648 16.539 3.33585L14.875 4.29679C14.1758 3.69523 13.3711 3.23038 12.5 2.9257V1.00773C12.5 0.788977 12.3476 0.597571 12.1328 0.550696C10.6992 0.230383 9.23046 0.246008 7.86718 0.550696C7.65234 0.597571 7.49999 0.788977 7.49999 1.00773V2.9296C6.6328 3.2382 5.82812 3.70304 5.12499 4.3007L3.46484 3.33976C3.27343 3.23038 3.03515 3.26554 2.88671 3.4296C1.92187 4.47257 1.18359 5.73038 0.749995 7.12491C0.683589 7.33585 0.773432 7.56241 0.964839 7.67179L2.6289 8.63273C2.46093 9.53898 2.46093 10.4687 2.6289 11.3749L0.964839 12.3359C0.773432 12.4452 0.687495 12.6718 0.749995 12.8827C1.18359 14.2734 1.92187 15.5312 2.88671 16.578C3.03515 16.7382 3.27734 16.7773 3.46484 16.6679L5.1289 15.7069C5.82812 16.3085 6.6328 16.7734 7.5039 17.078V18.9999C7.5039 19.2187 7.65624 19.4101 7.87109 19.4569C9.30468 19.7773 10.7734 19.7616 12.1367 19.4569C12.3516 19.4101 12.5039 19.2187 12.5039 18.9999V17.078C13.3711 16.7694 14.1758 16.3046 14.8789 15.7069L16.543 16.6679C16.7344 16.7773 16.9726 16.7421 17.1211 16.578C18.0859 15.5351 18.8242 14.2773 19.2578 12.8827C19.3164 12.6679 19.2305 12.4413 19.039 12.3319ZM9.99999 13.1249C8.27734 13.1249 6.87499 11.7226 6.87499 9.99991C6.87499 8.27726 8.27734 6.87491 9.99999 6.87491C11.7226 6.87491 13.125 8.27726 13.125 9.99991C13.125 11.7226 11.7226 13.1249 9.99999 13.1249Z" fill="white"/>
</svg>
