<svg width="20" height="20" viewBox="0 0 20 20" fill="none" xmlns="http://www.w3.org/2000/svg">
<g clip-path="url(#clip0)">
<path d="M19.0908 10.0839V7.27293C19.0908 6.31976 18.3515 5.54459 17.4173 5.46942L14.8069 0.909834C14.565 0.488136 14.1743 0.186735 13.7069 0.0615805C13.2417 -0.0627214 12.7552 0.00256164 12.3389 0.244901L3.39001 5.45476H1.81832C0.815594 5.45476 0.000152588 6.27016 0.000152588 7.27293V18.1818C0.000152588 19.1846 0.815551 20 1.81832 20H17.2726C18.2754 20 19.0908 19.1846 19.0908 18.1818V15.3709C19.6187 15.1826 19.9999 14.6828 19.9999 14.091V11.3638C19.9999 10.772 19.6187 10.2722 19.0908 10.0839ZM16.361 5.45476H12.3992L15.3706 3.72484L16.361 5.45476ZM14.9189 2.93595L10.5925 5.45476H8.79793L14.4702 2.15226L14.9189 2.93595ZM12.7965 1.03056C13.002 0.91026 13.2421 0.8783 13.4716 0.939578C13.7038 1.00171 13.8973 1.15175 14.0176 1.3617L14.0186 1.36336L6.99127 5.45476H5.1968L12.7965 1.03056ZM18.1817 18.1818C18.1817 18.683 17.7738 19.0909 17.2726 19.0909H1.81832C1.31719 19.0909 0.909257 18.683 0.909257 18.1818V7.27293C0.909257 6.7718 1.31719 6.36386 1.81832 6.36386H17.2726C17.7738 6.36386 18.1817 6.7718 18.1817 7.27293V10.0002H15.4545C13.9506 10.0002 12.7272 11.2235 12.7272 12.7274C12.7272 14.2313 13.9506 15.4546 15.4545 15.4546H18.1817V18.1818ZM19.0908 14.091C19.0908 14.3418 18.8871 14.5455 18.6362 14.5455H15.4545C14.4517 14.5455 13.6363 13.7301 13.6363 12.7274C13.6363 11.7247 14.4517 10.9092 15.4545 10.9092H18.6362C18.887 10.9092 19.0908 11.1129 19.0908 11.3638V14.091Z" fill="white"/>
<path d="M15.4544 11.8183C14.9533 11.8183 14.5454 12.2263 14.5454 12.7274C14.5454 13.2285 14.9533 13.6364 15.4544 13.6364C15.9556 13.6364 16.3635 13.2285 16.3635 12.7274C16.3635 12.2263 15.9556 11.8183 15.4544 11.8183Z" fill="white"/>
</g>
<defs>
<clipPath id="clip0">
<rect width="20" height="20" fill="white"/>
</clipPath>
</defs>
</svg>
